<svg width="17" height="10" viewBox="0 0 17 10" fill="none" xmlns="http://www.w3.org/2000/svg">
<path d="M6.76923 8.55871H4.46154C3.54348 8.55871 2.66303 8.19439 2.01386 7.5459C1.3647 6.89741 1 6.01787 1 5.10077C1 4.18366 1.3647 3.30412 2.01386 2.65563C2.66303 2.00714 3.54348 1.64282 4.46154 1.64282H6.76923M10.2308 1.64282H12.5385C13.4565 1.64282 14.337 2.00714 14.9861 2.65563C15.6353 3.30412 16 4.18366 16 5.10077C16 6.01787 15.6353 6.89741 14.9861 7.5459C14.337 8.19439 13.4565 8.55871 12.5385 8.55871H10.2308M5.15709 5.10077H11.915" stroke="#0E0C15" stroke-width="1.58203" stroke-linecap="round" stroke-linejoin="round"/>
</svg>
