<svg width="18" height="10" viewBox="0 0 18 10" fill="none" xmlns="http://www.w3.org/2000/svg">
<path d="M7.15385 8.38462H4.69231C3.71305 8.38462 2.77389 7.99561 2.08145 7.30316C1.38901 6.61072 1 5.67157 1 4.69231C1 3.71305 1.38901 2.77389 2.08145 2.08145C2.77389 1.38901 3.71305 1 4.69231 1H7.15385M10.8462 1H13.3077C14.287 1 15.2261 1.38901 15.9185 2.08145C16.611 2.77389 17 3.71305 17 4.69231C17 5.67157 16.611 6.61072 15.9185 7.30316C15.2261 7.99561 14.287 8.38462 13.3077 8.38462H10.8462M5.43423 4.69231H12.6427" stroke="white" stroke-width="1.6875" stroke-linecap="round" stroke-linejoin="round"/>
</svg>
