<svg width="13" height="14" viewBox="0 0 13 14" fill="none" xmlns="http://www.w3.org/2000/svg">
<path d="M11.9603 0.645996H1.1108C0.517969 0.645996 0 1.07212 0 1.65738V12.5197C0 13.1081 0.517969 13.6325 1.1108 13.6325H11.9571C12.5531 13.6325 13 13.1046 13 12.5197V1.65738C13.0035 1.07212 12.5531 0.645996 11.9603 0.645996ZM4.02971 11.4709H2.16734V5.68638H4.02971V11.4709ZM3.16295 4.80689H3.1496C2.55357 4.80689 2.16763 4.36367 2.16763 3.80885C2.16763 3.24388 2.56373 2.81109 3.1731 2.81109C3.78248 2.81109 4.15536 3.24069 4.16871 3.80885C4.16842 4.36367 3.78248 4.80689 3.16295 4.80689ZM10.8361 11.4709H8.97377V8.30803C8.97377 7.55029 8.70275 7.03257 8.02895 7.03257C7.51417 7.03257 7.20949 7.38043 7.07397 7.71929C7.02319 7.84104 7.00955 8.00685 7.00955 8.17614V11.4709H5.14719V5.68638H7.00955V6.49137C7.28058 6.10583 7.70395 5.55101 8.68911 5.55101C9.91163 5.55101 10.8364 6.356 10.8364 8.09149L10.8361 11.4709Z" fill="#0E0C15"/>
</svg>
