<svg width="20" height="16" viewBox="0 0 20 16" fill="none" xmlns="http://www.w3.org/2000/svg">
<path d="M19.9999 1.89583C19.2497 2.22181 18.4559 2.43658 17.6437 2.53333C18.4973 2.03349 19.1392 1.23941 19.4491 0.300006C18.6421 0.771918 17.7606 1.10303 16.8424 1.27917C16.4558 0.873975 15.9908 0.551632 15.4758 0.331733C14.9607 0.111834 14.4063 -0.00102805 13.8462 7.05599e-06C11.5787 7.05599e-06 9.74372 1.80833 9.74372 4.03749C9.74211 4.34756 9.77764 4.65671 9.84955 4.95832C8.22359 4.8821 6.63145 4.46732 5.17498 3.74052C3.7185 3.01372 2.42978 1.9909 1.39125 0.737505C1.0269 1.35172 0.834219 2.05252 0.833331 2.76666C0.833331 4.16666 1.56375 5.40416 2.66666 6.12915C2.01321 6.11365 1.37316 5.9407 0.800831 5.62499V5.67499C0.800831 7.63332 2.21749 9.26248 4.09249 9.63331C3.7399 9.7273 3.37656 9.77493 3.01166 9.77498C2.75273 9.77543 2.4944 9.75031 2.24041 9.69998C2.76166 11.3041 4.27874 12.4708 6.07581 12.5041C4.61556 13.6295 2.82275 14.2378 0.979164 14.2333C0.651922 14.2328 0.324985 14.2133 0 14.175C1.87549 15.3726 4.05559 16.006 6.28081 16C13.8375 16 17.9658 9.84581 17.9658 4.50833C17.9658 4.33333 17.9612 4.15833 17.9529 3.98749C18.7541 3.41752 19.4474 2.70921 19.9999 1.89583Z" fill="white"/>
</svg>
