<svg width="14" height="12" viewBox="0 0 14 12" fill="none" xmlns="http://www.w3.org/2000/svg">
<path d="M14 1.97171C13.4748 2.19966 12.9192 2.34983 12.3506 2.41749C12.9482 2.06797 13.3975 1.51268 13.6144 0.855783C13.0495 1.18578 12.4325 1.41732 11.7898 1.54049C11.5191 1.25715 11.1936 1.03174 10.8331 0.877969C10.4725 0.724199 10.0844 0.645277 9.69238 0.646001C8.10513 0.646001 6.82063 1.91052 6.82063 3.46932C6.8195 3.68614 6.84437 3.90232 6.89471 4.11323C5.75653 4.05993 4.64203 3.76988 3.62249 3.26165C2.60296 2.75341 1.70085 2.03818 0.973875 1.16171C0.718834 1.59122 0.583955 2.08127 0.583333 2.58066C0.583333 3.55964 1.09462 4.42499 1.86667 4.93196C1.40925 4.92112 0.961214 4.80018 0.560583 4.57941V4.61438C0.560583 5.98379 1.55225 7.12302 2.86475 7.38233C2.61794 7.44806 2.3636 7.48136 2.10817 7.4814C1.92692 7.48171 1.74608 7.46414 1.56829 7.42895C1.93317 8.5507 2.99513 9.36652 4.25308 9.38983C3.2309 10.1768 1.97593 10.6021 0.685417 10.599C0.456347 10.5986 0.22749 10.585 0 10.5582C1.31284 11.3956 2.83892 11.8386 4.39658 11.8344C9.68625 11.8344 12.5761 7.53093 12.5761 3.79856C12.5761 3.67618 12.5729 3.55381 12.567 3.43435C13.1279 3.03578 13.6132 2.54048 14 1.97171Z" fill="#0E0C15"/>
</svg>
